<svg version="1" xmlns="http://www.w3.org/2000/svg" width="346.667" height="346.667" viewBox="0 0 260.000000 260.000000"><path d="M110.9 8.4c-.2.2-4.7.6-9.9 1-5.2.3-12 .8-15 1.2-3 .3-6.1.6-6.7.7-.7 0-1.3.4-1.3.9s-.5.6-1 .3c-.6-.4-2.5.8-4.4 2.7C68 19.8 63.7 33.8 62.5 48c-.2 2.5-.5 4.5-.5 4.5-.1 0-.4 3.2-.5 7.2-.3 5.7-.1 7.2 1.1 7.7 3.5 1.4 15 9.5 19.6 13.8 1 1 2.3 1.8 2.8 1.8.6 0 1 .4 1 .8s3.2 3.2 7 6.1c9.4 7.1 12 7.3 23.2 1.8 4.5-2.3 8.5-4.4 8.8-4.8.7-.7 9.1-3.8 12.1-4.5 11.6-2.5 27.2-2.7 33.2-.4 7.1 2.7 11.4 5 14.7 7.9 4.5 3.9 5.4 3.9 4.6-.1-1.3-6.4-9-18.5-13.2-20.8-1.8-1-2.1-1.9-1.8-5.3.5-5.2.9-7 2.9-13.1 2.9-9.3 1.7-13-4.8-15.5-3.4-1.3-3.5-3.5-.2-6.3 4-3.5 3.2-5.2-4.2-8.6-6-2.6-9.1-3.9-12.8-4.9-3.2-.8-9.4-2.3-12-2.7-1.6-.3-4.1-.8-5.5-1.1-2.7-.5-11.4-1.4-19.8-2-2.9-.3-5.7-.7-6.1-.9-.5-.3-1-.4-1.2-.2zM202.4 37.5c-.8 2.1 0 2.8 5.9 4.9 7.6 2.8 14.1 9.3 15.4 15.3.9 4.4.4 14.3-1 18.8-.8 2.6-2.8 14.1-2.9 17-.1.9.7 6.4 1.5 10.5.4 2.5 5.3 10.4 8.4 13.6 3.3 3.5 10.4 8.5 15.1 10.5 1.7.8 3.2 1.6 3.2 1.9 0 .3-2.7 1.8-5.9 3.3-13.4 6.4-22 18.9-22.3 32.2 0 2.9 1.3 11.7 2.2 14 .6 1.5.8 3.1.4 3.6-.3.5-.2.9.3.9.4 0 .9 1.5 1.1 3.2.7 9.9.8 12.4.3 13.3-.3.5-.6 1.3-.7 1.7-.1.5-.3 1-.4 1.3-.1.3-.3.9-.4 1.5-.1.9-1.5 2.8-5.4 7.3-1.4 1.6-1.4 1.9.4 3.2 1 .8 2.2 1.5 2.6 1.5 1.5 0 11.8-10.4 14.1-14.3 3.7-6.2 5.5-13.4 5.1-20.2-.4-6.6-.6-7.9-2.6-18-.8-3.9-1.6-8.7-1.7-10.7-.4-8.7 7-17.6 17.2-20.6 4.6-1.4 5.7-2.1 5.5-3.6-.2-1.3-1.7-2.2-4.9-3-10.2-2.6-17.9-11.4-17.9-20.5 0-2 .7-6.8 1.5-10.6.9-3.9 1.8-8.4 2.1-10 1-4.6 1-17.5.1-17.5-.5 0-.6-.4-.3-.8 1.1-1.8-5.3-13-10.4-18-5.1-5.1-14.7-10.6-20.2-11.6-1.5-.2-3.2-.7-3.8-1.1-.6-.3-1.3.1-1.6 1zM50.5 37.7c-1.1.3-3.1 1-4.5 1.6-1.4.6-2.7 1.1-3 1.2-4.5 1-13.8 9.1-18 15.6-6.7 10.4-7.4 20.3-2.6 41.4.7 3.3 1.2 8 1 10.4-.6 8.1-7.5 15.7-16.9 18.4-3.7 1-5.1 1.9-5.3 3.5-.3 1.6.3 2.3 2.5 2.8 6.6 1.4 9.1 2.6 12.6 5.9 8 7.5 8.8 13.3 4.4 32.2-2.9 12.2-1.5 23.9 3.8 32.3 6.6 10.5 19.1 18.5 30 19.3 4.1.4 1.8-2.6-3.5-4.7-6.6-2.4-14.5-9.9-15.8-14.7-.9-3.6-.8-12.7.2-16.9.3-1.4.8-3.9 1.1-5.5.3-1.7.8-4.3 1.1-5.9 3.6-17.1-3.3-31.5-19.6-41-3.6-2.1-6.7-3.7-6.8-3.6-.2.1-.6 0-.8-.2-.2-.3 2.4-1.7 5.7-3.3 13.1-6 22-18.5 22.4-31.6.1-3.8-.1-6.9-.4-6.9-.3 0-.6-1-.7-2.3 0-2.1-.7-5.6-1.9-10.7-.3-1.4-.8-5.4-1-9-.5-8.9 2.3-14.8 9.7-20.5 1.8-1.5 8.1-4 9.1-3.7.4.1.7-.3.7-.8 0-.6.5-.9 1.2-.8.6.2 1.4-.5 1.6-1.5.4-1.8-1.8-2.1-6.3-1zM184.1 109.4c-3.1 1.7-4.1 4.4-2.8 7.3l1 2.2 1.7-2.1c1.4-1.8 1.7-1.9 2.3-.5.4 1.1-.5 2.5-2.5 4.2-2.7 2.3-3.9 2.6-9.6 2.4-3.6-.1-8.4-.9-10.6-1.7-4.8-1.6-15.8-2.3-17.8-1.1-1 .7-.8.9.7 1 4.1.1 6.9 1 13.1 3.9 10.2 4.9 13.9 5.9 21.1 5.7 10.6-.4 15.3-4.1 15.8-12.3.5-7.3-6.4-12.2-12.4-9zM84.9 111.4c-6.2 2-8.7 10.7-5 17.6 2 3.7 9.4 8.3 12.4 7.6.9-.2 1.7-.1 1.7.3 0 .5 2.4.4 5.3-.1 2.8-.4 6.2-.9 7.5-1 1.2-.1 2.2-.5 2.2-.9s1.2-1 2.7-1.4c1.4-.3 6.4-2.8 11-5.6 4.6-2.7 10.4-5.4 12.9-6 2.5-.7 4.1-1.5 3.4-1.9-1.2-.7-7.9-.4-12 .7-4.1 1-4.3 1.1-10.5 3.3-3.3 1.2-9.2 2.4-13 2.7-6.6.5-7.3.3-10.3-2.2-3.6-3-4.2-5.5-1.2-5.5 1.4 0 2 .7 2 2.1 0 1.8.2 1.9 1.5.9 2.2-1.8 1.8-6.3-.7-8.7-3.1-2.7-5.7-3.2-9.9-1.9z"/><path d="M65.5 141.6c-.5.1-2.2.5-3.7.8-1.6.4-2.8 1-2.8 1.5s2.8 2.3 6.3 4c6 3 6.2 3.2 6.4 7.3.2 2.4.5 5.9.7 7.9.5 4.1-.4 5.2-8.8 10.9l-4.9 3.3-6.5-3.2c-3.5-1.8-6.7-3-7-2.7-.9 1 1.9 6.4 5.1 9.4 6.8 6.5 16.6 6.9 24.8 1l2.5-1.9 12 5.9c6.5 3.2 14.9 7.3 18.7 9.1 3.7 1.8 6.7 3.6 6.7 4.2 0 .5-.3.8-.7.7-.5-.1-3.5 1.1-6.8 2.6s-7.6 3.5-9.5 4.3c-1.9.9-8.2 3.9-14 6.6-5.8 2.8-10.8 5-11.2 4.9-.3-.1-1.2.5-1.8 1.3-.7.8-1.6 1.5-2.1 1.5s-4.2 2.3-8.4 5.1c-11.7 8-15 12.9-12.5 19 1.9 4.6 5.1 6.2 10.7 5.6 5.2-.6 16.6-4.5 17.1-5.8.2-.5 1-.9 1.7-.9 1.2 0 7.6-3.3 13.5-7 .8-.5 3.3-1.9 5.5-3 2.1-1.2 5-3 6.3-4.1 1.4-1 3-1.9 3.8-1.9.7 0 1.4-.4 1.6-.9.3-.8 15.1-10.6 21.4-14.2 1.7-.9 4-2.3 5.1-3 1.7-1 4.1-.2 17.9 6.5 29.9 14.5 34.9 17.1 34.9 18.1 0 2.3 3 8.2 5.4 10.9 5.1 5.6 13.8 7.3 20.4 4 4.1-2.1 8.7-6.4 8.7-8.1 0-.7.4-1.3.8-1.3 1.2 0 2-9.2 1-13-.5-2.1-4.1-8-4.8-8-.4 0-1.5-.8-2.6-1.8-3.7-3.2-11-4-16.8-1.8-5.1 1.9-3.8 2.4-27.4-9.2-15.3-7.6-16.2-8.1-14-9.3 2.3-1.3 17-1.7 21.8-.6 1.4.3 3.4.8 4.5 1.1 5.9 1.4 10.2 2.1 11.5 2 .8-.1 2-.2 2.7-.3 1.8-.2 10.1-9 13-13.9 2.1-3.6 2.5-5.5 2.7-13.4.1-7.5-.2-9.6-1.7-11.5-1-1.3-2.4-2.3-3-2.3-.7 0-2.8 2.4-4.7 5.2-5 7.4-8 10.8-9.5 10.8-.7 0-2.7-1.3-4.4-2.9-1.7-1.6-3.1-2.7-3.1-2.5 0 .3-1.4-.8-3.1-2.4l-3.2-3 2.2-4.3c1.2-2.4 4.1-6.7 6.6-9.4 2.5-2.8 4.5-5.5 4.5-6.1 0-1.6-2.4-2.4-5.2-1.8-1.3.2-3.5.6-4.9.9-4.7.9-9.9 3.5-13.8 7-3.4 3.1-4 3.3-5.1 2-1.1-1.3-1.6-1.1-3.6 1.6-1.3 1.8-3.3 6.1-4.4 9.7-4.5 13.8-8.4 19.3-16.5 23.4l-5 2.6-10-4.9c-5.5-2.7-10.6-4.9-11.2-4.9-.7 0-1.3-.5-1.3-1 0-.6-.4-1-1-1-1.5 0-26.4-12.3-27.2-13.4-.4-.6-.8-2.6-.8-4.4 0-1.8-.7-4.7-1.6-6.5-1.6-3-7.9-9.7-9.3-9.7-.3 0-2.2-.4-4.1-.9-1.9-.4-3.9-.7-4.5-.5zm109.7 22.8c1.5 1.4 3 2.6 3.3 2.6 1.4 0 6.8 6.2 5.9 6.8-.5.4-2.4 2.6-4.3 4.9-3.1 4-5.1 5.4-5.1 3.5 0-.5 1.4-2.4 3-4.2 1.7-1.8 3-4.1 3-5 0-.9-1.9-3.2-4.2-5-2.4-1.9-4.4-3.8-4.6-4.2-1-2.2-3.7-.1-8.6 6.7-.8 1.1-1.7 1.7-2.1 1.3-.6-.6 2-4.7 6.4-10 1.6-1.9 3-1.4 7.3 2.6zm36.9 56.6c3.3 1.7 6.2 3.6 6.4 4.3.2.7.6 4 .8 7.3.4 5.3.2 6.3-1.5 7.5-1.1.8-3.8 2.6-5.9 4.2-2.1 1.5-4.4 2.7-5.1 2.7-.7-.1-4-1.5-7.3-3.3-5.2-2.8-6.1-3.6-6.2-6.2-.1-1.7-.3-5-.4-7.4-.2-2.9.2-4.6 1.2-5.1.8-.5 3.2-2.2 5.4-3.8 2.2-1.7 4.6-3.1 5.3-3.1.7-.1 4 1.3 7.3 2.9zM63.3 235.2c.9.7 1.9 2.5 2.2 3.9.5 2.1.1 3.1-1.9 4.7-3 2.3-6 1.9-8.1-1.1-2-2.9-1.9-4.3.5-6.7 2.3-2.3 4.9-2.6 7.3-.8z"/><path d="M203.1 221.4c-1.2 1.4-.3 1.5 4.9.7.6-.2-2.3-2.1-3.1-2.1-.4 0-1.2.6-1.8 1.4z"/></svg>